<?xml version="1.0" encoding="UTF-8" standalone="no"?>
<!-- Created with Inkscape (http://www.inkscape.org/) -->
<svg
   xmlns:dc="http://purl.org/dc/elements/1.1/"
   xmlns:cc="http://creativecommons.org/ns#"
   xmlns:rdf="http://www.w3.org/1999/02/22-rdf-syntax-ns#"
   xmlns:svg="http://www.w3.org/2000/svg"
   xmlns="http://www.w3.org/2000/svg"
   xmlns:xlink="http://www.w3.org/1999/xlink"
   xmlns:sodipodi="http://sodipodi.sourceforge.net/DTD/sodipodi-0.dtd"
   xmlns:inkscape="http://www.inkscape.org/namespaces/inkscape"
   width="343pt"
   height="340pt"
   id="svg2405"
   sodipodi:version="0.32"
   inkscape:version="0.46"
   sodipodi:docname="logo.svg"
   inkscape:output_extension="org.inkscape.output.svg.inkscape">
  <defs
     id="defs2407">
    <linearGradient
       id="linearGradient3266">
      <stop
         style="stop-color:#ffffff;stop-opacity:1;"
         offset="0"
         id="stop3268" />
      <stop
         style="stop-color:#3eb235;stop-opacity:1;"
         offset="1"
         id="stop3270" />
    </linearGradient>
    <linearGradient
       id="linearGradient3202">
      <stop
         style="stop-color:#ffffff;stop-opacity:1;"
         offset="0"
         id="stop3204" />
      <stop
         id="stop4724"
         offset="1"
         style="stop-color:#0083e6;stop-opacity:1;" />
    </linearGradient>
    <radialGradient
       inkscape:collect="always"
       xlink:href="#linearGradient3202"
       id="radialGradient3274"
       cx="87.333214"
       cy="-1222.6621"
       fx="87.333214"
       fy="-1222.6621"
       r="165.79468"
       gradientTransform="matrix(0.7878718,-1.7199852,1.798089,0.8236485,2194.4811,1104.9598)"
       gradientUnits="userSpaceOnUse" />
    <radialGradient
       inkscape:collect="always"
       xlink:href="#linearGradient3266"
       id="radialGradient3277"
       gradientUnits="userSpaceOnUse"
       gradientTransform="matrix(0.9253899,-2.0050418,1.7574695,0.8111464,357.09577,320.35742)"
       cx="98.316719"
       cy="-209.17043"
       fx="98.316719"
       fy="-209.17043"
       r="123.15857" />
  </defs>
  <sodipodi:namedview
     pagecolor="#ffffff"
     bordercolor="#666666"
     borderopacity="1.0"
     inkscape:pageopacity="0.0"
     inkscape:pageshadow="2"
     inkscape:zoom="0.8"
     inkscape:cx="-119.72722"
     inkscape:cy="231.1152"
     inkscape:document-units="pt"
     inkscape:current-layer="layer1"
     id="namedview2409"
     showgrid="false"
     inkscape:window-width="1630"
     inkscape:window-height="1026"
     inkscape:window-x="0"
     inkscape:window-y="145"
     showguides="true"
     inkscape:guide-bbox="true" />
  <metadata
     id="metadata2411">
    <rdf:RDF>
      <cc:Work
         rdf:about="">
        <dc:format>image/svg+xml</dc:format>
        <dc:type
           rdf:resource="http://purl.org/dc/dcmitype/StillImage" />
      </cc:Work>
    </rdf:RDF>
  </metadata>
  <g
     inkscape:label="Layer 1"
     inkscape:groupmode="layer"
     id="layer1">
    <path
       style="fill:none;fill-rule:evenodd;stroke:#917e32;stroke-width:27.17690849;stroke-linecap:butt;stroke-linejoin:miter;stroke-miterlimit:4;stroke-dasharray:none;stroke-opacity:1"
       d="M 305.59296,335.43963 C 315.59902,323.19337 321.09319,312.34994 326.99435,295.44599 C 332.92679,278.45243 339.52343,262.24127 342.22478,230.74807 C 344.92209,199.30197 343.76411,175.19688 337.71926,151.73574 C 331.48553,127.54154 321.13779,114.31487 309.22144,92.33053"
       id="path2462"
       sodipodi:nodetypes="czzzs" />
    <path
       style="fill:url(#radialGradient3274);fill-opacity:1;stroke:#0c15b2;stroke-width:0;stroke-linecap:round;stroke-miterlimit:4;stroke-opacity:1"
       d="M 361.25282,316.16944 C 376.98273,317.34509 357.16389,334.7374 348.61462,344.34408 C 340.06536,353.95075 320.99486,354.76322 305.87262,361.99788 C 290.75039,369.23255 274.60026,393.05935 254.70134,397.06262 C 234.80243,401.06589 213.4166,402.45632 190.53729,402.36885 C 167.78994,402.28188 151.57079,381.19703 131.89294,377.0907 C 112.21511,372.98439 92.69757,379.5981 77.82958,372.3239 C 62.961596,365.04969 50.933642,356.40441 42.615885,346.81378 C 34.298142,337.22318 17.316228,318.73227 29.663453,315.63169 L 195.46064,315.53554 L 361.25282,316.16944 z"
       id="path2430"
       sodipodi:nodetypes="csssssssccc" />
    <path
       style="font-size:78.40901184px;font-style:italic;font-variant:normal;font-weight:bold;font-stretch:normal;fill:#030000;fill-opacity:1;stroke:none;stroke-width:1px;stroke-linecap:butt;stroke-linejoin:miter;stroke-opacity:1;font-family:LMMathSymbols5;-inkscape-font-specification:LMMathSymbols5 Bold Italic"
       d="M 49.338063,302.52953 C 49.338063,293.30612 51.86453,286.09162 56.917494,280.88601 C 61.970428,275.65524 68.492859,273.03982 76.484796,273.03977 C 81.71817,273.03982 86.43597,274.2654 90.63821,276.71651 C 94.84037,279.16772 98.03713,282.59177 100.22851,286.98865 C 102.44556,291.36035 103.55412,296.32585 103.55418,301.88515 C 103.55412,307.52032 102.394,312.56162 100.07383,317.00907 C 97.75354,321.45656 94.46655,324.83006 90.21284,327.1296 C 85.95904,329.40387 81.37013,330.54101 76.446121,330.54101 C 71.109554,330.54101 66.340193,329.27752 62.138016,326.75056 C 57.9358,324.22359 54.75193,320.77427 52.586385,316.4026 C 50.42083,312.03096 49.338063,307.40661 49.338063,302.52953 M 57.072174,302.64324 C 57.072164,309.33974 58.902563,314.6211 62.56339,318.48735 C 66.249964,322.32836 70.864646,324.24886 76.407446,324.24885 C 82.05331,324.24886 86.69378,322.30309 90.32885,318.41154 C 93.98962,314.52003 95.82002,308.9986 95.82007,301.84725 C 95.82002,297.324 95.03372,293.38193 93.46117,290.02102 C 91.91429,286.63492 89.63273,284.0195 86.61648,282.17477 C 83.62591,280.30486 80.26158,279.36988 76.523461,279.36983 C 71.212681,279.36988 66.636674,281.16403 62.79542,284.75228 C 58.979902,288.31535 57.072164,294.279 57.072174,302.64324 M 106.95719,329.5934 L 128.72871,274.02529 L 136.81086,274.02529 L 160.01319,329.5934 L 151.467,329.5934 L 144.85434,312.76376 L 121.14928,312.76376 L 114.92332,329.5934 L 106.95719,329.5934 M 123.31484,306.77484 L 142.5341,306.77484 L 136.6175,291.38558 C 134.81285,286.71073 133.47228,282.86973 132.59576,279.86259 C 131.87389,283.42567 130.85557,286.96342 129.5408,290.47587 L 123.31484,306.77484 M 163.53222,311.74034 L 170.60892,311.13387 C 170.94406,313.91355 171.71747,316.20046 172.92916,317.99459 C 174.16661,319.76348 176.07435,321.20386 178.6524,322.31572 C 181.23042,323.40232 184.13071,323.94562 187.35328,323.94562 C 190.21487,323.94562 192.74135,323.52867 194.93271,322.69476 C 197.124,321.86087 198.74817,320.72374 199.8052,319.28335 C 200.88793,317.81772 201.42932,316.22573 201.42936,314.50737 C 201.42932,312.76378 200.91371,311.2476 199.88254,309.95882 C 198.85128,308.64482 197.14979,307.54559 194.77803,306.66113 C 193.25695,306.07995 189.89261,305.18287 184.68501,303.9699 C 179.47736,302.73171 175.82944,301.56931 173.74124,300.48268 C 171.0343,299.09288 169.01053,297.37454 167.66997,295.32766 C 166.35516,293.25558 165.69776,290.9434 165.69777,288.39112 C 165.69776,285.58623 166.50984,282.97081 168.13401,280.54487 C 169.75817,278.09376 172.12995,276.23644 175.24939,274.9729 C 178.3688,273.70947 181.83625,273.07773 185.65177,273.07767 C 189.85395,273.07773 193.55342,273.74737 196.75022,275.08661 C 199.97274,276.40069 202.44764,278.34646 204.17497,280.92392 C 205.90221,283.50148 206.8303,286.42013 206.95926,289.67988 L 199.76652,290.21054 C 199.37978,286.69809 198.06499,284.04477 195.82213,282.25058 C 193.60498,280.45648 190.31799,279.5594 185.96114,279.55935 C 181.42377,279.5594 178.111,280.38067 176.02281,282.02315 C 173.96036,283.64046 172.92915,285.59886 172.92916,287.89836 C 172.92915,289.89471 173.66389,291.53724 175.13339,292.82596 C 176.57707,294.11475 180.341,295.44141 186.42519,296.80594 C 192.53511,298.14526 196.7244,299.3203 198.99311,300.33106 C 202.29296,301.822 204.72921,303.71723 206.30185,306.01675 C 207.8744,308.29104 208.66071,310.9191 208.66075,313.9009 C 208.66071,316.85747 207.79706,319.64977 206.06983,322.27781 C 204.3425,324.8806 201.8547,326.91481 198.60642,328.38045 C 195.38383,329.82082 191.7488,330.54101 187.70131,330.54101 C 182.571,330.54101 178.26569,329.80819 174.78534,328.34254 C 171.33077,326.87691 168.61094,324.67844 166.62586,321.74715 C 164.66655,318.7906 163.63533,315.45501 163.53222,311.74034 M 220.26192,329.5934 L 220.26192,274.02529 L 227.76401,274.02529 L 227.76401,329.5934 L 220.26192,329.5934 M 238.39841,311.74034 L 245.47512,311.13387 C 245.81026,313.91355 246.58367,316.20046 247.79536,317.99459 C 249.0328,319.76348 250.94054,321.20386 253.5186,322.31572 C 256.09661,323.40232 258.9969,323.94562 262.21947,323.94562 C 265.08106,323.94562 267.60754,323.52867 269.7989,322.69476 C 271.9902,321.86087 273.61436,320.72374 274.67139,319.28335 C 275.75413,317.81772 276.29551,316.22573 276.29555,314.50737 C 276.29551,312.76378 275.77991,311.2476 274.74873,309.95882 C 273.71748,308.64482 272.01598,307.54559 269.64422,306.66113 C 268.12314,306.07995 264.75881,305.18287 259.5512,303.9699 C 254.34355,302.73171 250.69563,301.56931 248.60744,300.48268 C 245.90049,299.09288 243.87673,297.37454 242.53616,295.32766 C 241.22135,293.25558 240.56396,290.9434 240.56396,288.39112 C 240.56396,285.58623 241.37604,282.97081 243.00021,280.54487 C 244.62436,278.09376 246.99615,276.23644 250.11559,274.9729 C 253.235,273.70947 256.70245,273.07773 260.51797,273.07767 C 264.72014,273.07773 268.41962,273.74737 271.61642,275.08661 C 274.83892,276.40069 277.31384,278.34646 279.04116,280.92392 C 280.7684,283.50148 281.6965,286.42013 281.82544,289.67988 L 274.63272,290.21054 C 274.24598,286.69809 272.93118,284.04477 270.68832,282.25058 C 268.47118,280.45648 265.18418,279.5594 260.82733,279.55935 C 256.28997,279.5594 252.97719,280.38067 250.889,282.02315 C 248.82656,283.64046 247.79534,285.59886 247.79536,287.89836 C 247.79534,289.89471 248.53008,291.53724 249.99958,292.82596 C 251.44326,294.11475 255.20719,295.44141 261.29138,296.80594 C 267.40129,298.14526 271.5906,299.3203 273.85931,300.33106 C 277.15916,301.822 279.5954,303.71723 281.16804,306.01675 C 282.7406,308.29104 283.5269,310.9191 283.52695,313.9009 C 283.5269,316.85747 282.66326,319.64977 280.93602,322.27781 C 279.20869,324.8806 276.72089,326.91481 273.4726,328.38045 C 270.25002,329.82082 266.61499,330.54101 262.56751,330.54101 C 257.43719,330.54101 253.13187,329.80819 249.65154,328.34254 C 246.19696,326.87691 243.47713,324.67844 241.49205,321.74715 C 239.53274,318.7906 238.50153,315.45501 238.39841,311.74034"
       id="text4746" />
    <path
       style="opacity:1;fill:url(#radialGradient3277);fill-opacity:1;fill-rule:nonzero;stroke:#0c15b2;stroke-width:0;stroke-linecap:round;stroke-miterlimit:4;stroke-dasharray:none;stroke-opacity:1"
       d="M 256.12278,37.498811 C 250.16732,37.751927 241.42754,37.817591 231.8125,41.5625 C 222.19746,45.307409 206.32907,54.406424 201.29352,60.191427 C 196.36031,65.85885 197.34979,63.939759 193.36011,70.689174 C 200.81902,65.934122 212.24717,57.760789 220.15625,54.65625 C 228.06533,51.551711 249.2539,49.597832 260.33071,52.908646 C 271.40753,56.21946 274.85628,60.689 286.64234,68.884983 C 280.12426,69.314853 273.94124,69.231935 261.71798,70.72896 C 249.68954,72.202124 245.41577,72.642005 233.96875,76.96875 C 219.85047,82.30518 210.5584,86.296086 198.67043,95.717282 C 190.28964,102.35905 181.4686,114.55311 177.81356,124.58264 C 176.15099,129.14476 175.28084,130.12245 174.40048,142.23247 C 183.14391,131.75874 187.64954,122.61837 194.65625,114.15625 C 200.25339,107.39649 210.955,99.722196 219.21715,94.709015 C 230.8674,87.64005 243.6222,86.263179 257.15625,84.90625 C 247.09478,89.728345 238.85214,96.016894 231.64651,104.21081 C 225.67447,111.00195 219.56773,120.01142 217.15177,128.86407 C 214.16033,139.82543 213.78716,146.84251 217.375,162.3125 C 221.20668,152.72467 224.02942,142.68802 228.68756,133.46073 C 233.04421,124.83066 244.01485,107.01813 250.42199,101.79801 C 256.82913,96.577893 267.42488,94.859639 272.90131,95.747791 C 266.33019,102.31869 263.74171,105.48042 261.57187,115.42934 C 259.60364,124.45387 261.79132,137.26741 264.29236,146.13352 C 265.49179,150.38545 265.3062,150.50919 269.44858,156.22484 C 269.18942,143.58112 271.41442,122.65072 277.62085,111.63093 C 282.16829,103.55676 292.00427,98.348343 301.53835,99.065549 C 309.27057,100.10974 312.27623,92.093967 317.49878,88.373121 C 324.28255,83.743845 333.18663,85.221248 340.35015,88.171519 C 349.42819,86.611196 357.63103,89.261842 365.75868,93.531786 C 376.88854,99.378971 386.71486,107.19575 397.59375,113.4375 C 391.50029,94.176995 382.41605,86.887855 368.8274,77.659937 C 359.92334,71.613282 345.65851,67.981637 334.51843,71.856563 C 339.58263,67.687488 342.16809,66.225218 347.05276,64.723551 C 351.39881,63.387465 363.60242,59.302345 374.91494,60.511365 C 385.83934,61.678906 388.57634,62.539608 397.12571,66.486235 C 405.67507,70.432862 407.2243,75.590413 414.83567,84.101649 C 410.89713,71.16288 406.95754,66.68989 403.40109,62.417576 C 399.0661,57.210027 394.90628,55.046017 384.2236,52.315675 C 373.54091,49.585334 364.68047,49.601653 353.98332,51.752128 C 346.74142,53.207987 334.39823,59.7572 331.62817,61.002799 C 334.62579,52.482862 338.05204,49.610637 345.06989,43.530906 C 350.01414,39.247584 350.59154,39.918392 357.36452,36.096527 C 347.83353,38.109357 332.53699,44.866568 324.50901,50.019772 C 318.44093,53.914908 320.10785,52.546757 312.44623,59.565595 C 300.81473,49.491849 291.41117,44.41268 282.60411,41.660297 C 273.79704,38.907915 262.07824,37.245694 256.12278,37.498811 z"
       id="path4756"
       sodipodi:nodetypes="czzczzcsssscsscsscszcsscscccscscssscszscscsczz" />
    <path
       sodipodi:type="arc"
       style="opacity:1;fill:#2b2200;fill-opacity:1;fill-rule:nonzero;stroke:none;stroke-width:3.18955803;stroke-linecap:round;stroke-miterlimit:4;stroke-dasharray:none;stroke-opacity:1"
       id="path4884"
       sodipodi:cx="-212.5"
       sodipodi:cy="-150"
       sodipodi:rx="45"
       sodipodi:ry="52.5"
       d="M -167.5,-150 A 45,52.5 0 1 1 -257.5,-150 A 45,52.5 0 1 1 -167.5,-150 z"
       transform="matrix(0.2597091,0.1166967,-0.1414991,0.3149071,328.27581,185.90902)" />
    <path
       sodipodi:type="arc"
       style="opacity:1;fill:#2b2200;fill-opacity:1;fill-rule:nonzero;stroke:none;stroke-width:3.18955755;stroke-linecap:round;stroke-miterlimit:4;stroke-dasharray:none;stroke-opacity:1"
       id="path4886"
       sodipodi:cx="-212.5"
       sodipodi:cy="-150"
       sodipodi:rx="45"
       sodipodi:ry="52.5"
       d="M -167.5,-150 A 45,52.5 0 1 1 -257.5,-150 A 45,52.5 0 1 1 -167.5,-150 z"
       transform="matrix(0.235853,-0.1595002,0.1934,0.2859807,391.25377,111.6283)" />
    <path
       sodipodi:type="arc"
       style="opacity:1;fill:#2b2200;fill-opacity:1;fill-rule:nonzero;stroke:none;stroke-width:3.18955851;stroke-linecap:round;stroke-miterlimit:4;stroke-dasharray:none;stroke-opacity:1"
       id="path4888"
       sodipodi:cx="-212.5"
       sodipodi:cy="-150"
       sodipodi:rx="45"
       sodipodi:ry="52.5"
       d="M -167.5,-150 A 45,52.5 0 1 1 -257.5,-150 A 45,52.5 0 1 1 -167.5,-150 z"
       transform="matrix(8.5364693e-2,-0.2716243,0.3293548,0.1035078,397.12401,48.86002)"
       inkscape:transform-center-x="205.6692"
       inkscape:transform-center-y="-165.94598" />
    <path
       style="font-size:78.40901184px;font-style:italic;font-variant:normal;font-weight:bold;font-stretch:normal;fill:#fff9f9;fill-opacity:1;stroke:none;stroke-width:1px;stroke-linecap:butt;stroke-linejoin:miter;stroke-opacity:1;font-family:LMMathSymbols5;-inkscape-font-specification:LMMathSymbols5 Bold Italic"
       d="M 51.881751,314.8649 C 52.099541,315.36733 52.323591,315.86897 52.569251,316.3649 C 54.734791,320.73657 57.929531,324.18168 62.131751,326.70865 C 66.333931,329.23561 71.076441,330.4899 76.413001,330.4899 C 81.33702,330.4899 85.94045,329.35792 90.19425,327.08365 C 94.44796,324.78412 97.74896,321.40614 100.06925,316.95865 C 100.42641,316.27403 100.73582,315.57767 101.038,314.8649 L 92.88175,314.8649 C 92.16072,316.15155 91.30656,317.31536 90.31925,318.3649 C 86.68417,322.25645 82.02761,324.20866 76.381751,324.20865 C 70.838951,324.20866 66.224571,322.26841 62.538001,318.4274 C 61.516441,317.34852 60.649491,316.16417 59.913001,314.8649 L 51.881751,314.8649 z M 112.69425,314.8649 L 106.94425,329.5524 L 114.913,329.5524 L 120.3505,314.8649 L 112.69425,314.8649 z M 145.663,314.8649 L 151.44425,329.5524 L 160.00675,329.5524 L 153.88175,314.8649 L 145.663,314.8649 z M 163.8505,314.8649 C 164.30906,317.32719 165.21864,319.62346 166.6005,321.70865 C 168.58558,324.63994 171.30217,326.83677 174.75675,328.3024 C 178.23709,329.76805 182.56393,330.4899 187.69425,330.4899 C 191.74173,330.4899 195.37791,329.77402 198.6005,328.33365 C 201.84878,326.86801 204.31066,324.84268 206.038,322.2399 C 207.56782,319.91223 208.42562,317.45029 208.6005,314.8649 L 201.38175,314.8649 C 201.30079,316.42456 200.78265,317.89351 199.788,319.2399 C 198.73097,320.68029 197.10429,321.81227 194.913,322.64615 C 192.72164,323.48006 190.18083,323.89615 187.31925,323.89615 C 184.09669,323.89615 181.20978,323.35775 178.63175,322.27115 C 176.0537,321.15929 174.15046,319.72753 172.913,317.95865 C 172.3023,317.05439 171.80103,316.0195 171.413,314.8649 L 163.8505,314.8649 z M 220.25675,314.8649 L 220.25675,329.5524 L 227.75675,329.5524 L 227.75675,314.8649 L 220.25675,314.8649 z M 238.7255,314.8649 C 239.18406,317.32719 240.09364,319.62346 241.4755,321.70865 C 243.46058,324.63994 246.17718,326.83677 249.63175,328.3024 C 253.11209,329.76805 257.40769,330.4899 262.538,330.4899 C 266.58549,330.4899 270.22167,329.77402 273.44425,328.33365 C 276.69254,326.86801 279.18568,324.84268 280.913,322.2399 C 282.44283,319.91223 283.30062,317.45029 283.4755,314.8649 L 276.25675,314.8649 C 276.1758,316.42456 275.65765,317.89351 274.663,319.2399 C 273.60597,320.68029 271.9793,321.81227 269.788,322.64615 C 267.59664,323.48006 265.05585,323.89615 262.19425,323.89615 C 258.97168,323.89615 256.08477,323.35775 253.50675,322.27115 C 250.9287,321.15929 249.02545,319.72753 247.788,317.95865 C 247.1774,317.05453 246.67601,316.0193 246.288,314.8649 L 238.7255,314.8649 z"
       id="path3255" />
  </g>
</svg>
