<?xml version="1.0" encoding="UTF-8" standalone="no"?>
<!-- Created with Inkscape (http://www.inkscape.org/) -->
<svg
   xmlns:dc="http://purl.org/dc/elements/1.1/"
   xmlns:cc="http://creativecommons.org/ns#"
   xmlns:rdf="http://www.w3.org/1999/02/22-rdf-syntax-ns#"
   xmlns:svg="http://www.w3.org/2000/svg"
   xmlns="http://www.w3.org/2000/svg"
   xmlns:xlink="http://www.w3.org/1999/xlink"
   xmlns:sodipodi="http://sodipodi.sourceforge.net/DTD/sodipodi-0.dtd"
   xmlns:inkscape="http://www.inkscape.org/namespaces/inkscape"
   width="937"
   height="425"
   id="svg2516"
   sodipodi:version="0.32"
   inkscape:version="0.46"
   sodipodi:docname="powered-by-oasis.svg"
   version="1.0"
   inkscape:output_extension="org.inkscape.output.svg.inkscape">
  <defs
     id="defs2518">
    <linearGradient
       id="linearGradient3202">
      <stop
         style="stop-color:#ffffff;stop-opacity:1;"
         offset="0"
         id="stop3204" />
      <stop
         id="stop4724"
         offset="1"
         style="stop-color:#0083e6;stop-opacity:1;" />
    </linearGradient>
    <linearGradient
       id="linearGradient3266">
      <stop
         style="stop-color:#ffffff;stop-opacity:1;"
         offset="0"
         id="stop3268" />
      <stop
         style="stop-color:#3eb235;stop-opacity:1;"
         offset="1"
         id="stop3270" />
    </linearGradient>
    <inkscape:perspective
       sodipodi:type="inkscape:persp3d"
       inkscape:vp_x="0 : 526.18109 : 1"
       inkscape:vp_y="0 : 1000 : 0"
       inkscape:vp_z="744.09448 : 526.18109 : 1"
       inkscape:persp3d-origin="372.04724 : 350.78739 : 1"
       id="perspective2524" />
    <radialGradient
       inkscape:collect="always"
       xlink:href="#linearGradient3202"
       id="radialGradient2622"
       gradientUnits="userSpaceOnUse"
       gradientTransform="matrix(0.7878718,-1.7199852,1.798089,0.8236485,3646.3007,1353.6892)"
       cx="87.333214"
       cy="-1222.6621"
       fx="87.333214"
       fy="-1222.6621"
       r="165.79468" />
    <radialGradient
       inkscape:collect="always"
       xlink:href="#linearGradient3266"
       id="radialGradient2624"
       gradientUnits="userSpaceOnUse"
       gradientTransform="matrix(0.9253899,-2.0050418,1.7574695,0.8111464,1808.9154,569.08672)"
       cx="98.316719"
       cy="-209.17043"
       fx="98.316719"
       fy="-209.17043"
       r="123.15857" />
    <radialGradient
       inkscape:collect="always"
       xlink:href="#linearGradient3266"
       id="radialGradient3430"
       gradientUnits="userSpaceOnUse"
       gradientTransform="matrix(0.9253899,-2.0050418,1.7574695,0.8111464,1824.4489,570.09687)"
       cx="98.316719"
       cy="-209.17043"
       fx="98.316719"
       fy="-209.17043"
       r="123.15857" />
    <radialGradient
       inkscape:collect="always"
       xlink:href="#linearGradient3202"
       id="radialGradient3434"
       gradientUnits="userSpaceOnUse"
       gradientTransform="matrix(0.7878718,-1.7199852,1.798089,0.8236485,3661.8342,1354.6994)"
       cx="87.333214"
       cy="-1222.6621"
       fx="87.333214"
       fy="-1222.6621"
       r="165.79468" />
    <radialGradient
       inkscape:collect="always"
       xlink:href="#linearGradient3202"
       id="radialGradient3451"
       gradientUnits="userSpaceOnUse"
       gradientTransform="matrix(0.7878718,-1.7199852,1.798089,0.8236485,3660.5991,1354.3428)"
       cx="87.333214"
       cy="-1222.6621"
       fx="87.333214"
       fy="-1222.6621"
       r="165.79468" />
    <clipPath
       clipPathUnits="userSpaceOnUse"
       id="clipPath3453">
      <path
         style="fill:url(#radialGradient3457);fill-opacity:1;stroke:#0c15b2;stroke-width:0;stroke-linecap:round;stroke-miterlimit:4;stroke-opacity:1"
         d="M 849.45401,315.50713 C 865.18392,316.68278 845.36508,334.07509 836.81581,343.68177 C 828.26655,353.28844 809.19605,354.10091 794.07381,361.33557 C 778.95158,368.57024 762.80145,392.39704 742.90253,396.40031 C 723.00362,400.40358 701.61779,401.79401 678.73848,401.70654 C 655.99113,401.61957 639.77198,380.53472 620.09413,376.42839 C 600.4163,372.32208 580.89876,378.93579 566.03077,371.66159 C 551.16278,364.38738 539.13483,355.7421 530.81707,346.15147 C 522.49933,336.56087 505.51741,318.06996 517.86464,314.96938 L 683.66183,314.87323 L 849.45401,315.50713 z"
         id="path3455"
         sodipodi:nodetypes="csssssssccc" />
    </clipPath>
    <radialGradient
       inkscape:collect="always"
       xlink:href="#linearGradient3202"
       id="radialGradient3457"
       gradientUnits="userSpaceOnUse"
       gradientTransform="matrix(0.7878718,-1.7199852,1.798089,0.8236485,3660.5991,1354.3428)"
       cx="87.333214"
       cy="-1222.6621"
       fx="87.333214"
       fy="-1222.6621"
       r="165.79468" />
  </defs>
  <sodipodi:namedview
     id="base"
     pagecolor="#ffffff"
     bordercolor="#666666"
     borderopacity="1.0"
     inkscape:pageopacity="0.0"
     inkscape:pageshadow="2"
     inkscape:zoom="0.7495332"
     inkscape:cx="789.51983"
     inkscape:cy="371.95112"
     inkscape:document-units="px"
     inkscape:current-layer="layer1"
     showgrid="false"
     inkscape:window-width="1630"
     inkscape:window-height="1026"
     inkscape:window-x="0"
     inkscape:window-y="0" />
  <metadata
     id="metadata2521">
    <rdf:RDF>
      <cc:Work
         rdf:about="">
        <dc:format>image/svg+xml</dc:format>
        <dc:type
           rdf:resource="http://purl.org/dc/dcmitype/StillImage" />
      </cc:Work>
    </rdf:RDF>
  </metadata>
  <g
     inkscape:label="Calque 1"
     inkscape:groupmode="layer"
     id="layer1">
    <rect
       style="opacity:1;fill:#ffffff;fill-opacity:1;fill-rule:nonzero;stroke:#447821;stroke-width:8;stroke-linecap:round;stroke-miterlimit:4;stroke-dasharray:none;stroke-opacity:1"
       id="rect2636"
       width="915.19824"
       height="403.0509"
       x="12.12183"
       y="13.867914"
       ry="49.497475" />
    <path
       style="fill:none;fill-rule:evenodd;stroke:#917e32;stroke-width:27.17690849;stroke-linecap:butt;stroke-linejoin:miter;stroke-miterlimit:4;stroke-dasharray:none;stroke-opacity:1"
       d="M 795.02917,335.13389 C 805.03523,322.88763 810.5294,312.0442 816.43056,295.14025 C 822.363,278.14669 828.95964,261.93553 831.66099,230.44233 C 834.3583,198.99623 833.20032,174.89114 827.15547,151.43 C 820.92174,127.2358 810.574,114.00913 798.65765,92.024791"
       id="path2462"
       sodipodi:nodetypes="czzzs" />
    <path
       style="font-size:78.40901184000000512px;font-style:italic;font-variant:normal;font-weight:bold;font-stretch:normal;fill:#447821;fill-opacity:1;stroke:#447821;stroke-width:1px;stroke-linecap:butt;stroke-linejoin:miter;stroke-opacity:1;font-family:LMMathSymbols5;-inkscape-font-specification:LMMathSymbols5 Bold Italic"
       d="M 91.829429,286.09402 C 91.829429,260.63408 98.803389,240.71946 112.75139,226.35011 C 126.69928,211.91132 144.70355,204.69181 166.76416,204.69168 C 181.21016,204.69181 194.233,208.07486 205.83267,214.84081 C 217.43216,221.60703 226.25637,231.05864 232.30535,243.19559 C 238.42521,255.26306 241.48523,268.96963 241.4854,284.3153 C 241.48523,299.87038 238.28289,313.78619 231.87838,326.06274 C 225.47356,338.33941 216.40028,347.65149 204.65851,353.99904 C 192.9165,360.27685 180.24944,363.41576 166.6574,363.41576 C 151.92656,363.41576 138.76143,359.92807 127.1619,352.95276 C 115.56228,345.97743 106.77366,336.45606 100.79596,324.38867 C 94.818259,312.32138 91.829429,299.5565 91.829429,286.09402 M 113.17835,286.40789 C 113.17833,304.89263 118.23089,319.47109 128.33609,330.14332 C 138.51235,340.74591 151.25053,346.04717 166.55063,346.04715 C 182.13527,346.04717 194.94464,340.67614 204.97872,329.93406 C 215.08378,319.19211 220.13635,303.95098 220.13648,284.21068 C 220.13635,271.72488 217.96586,260.84334 213.62507,251.56604 C 209.35512,242.21917 203.05718,234.99969 194.73127,229.90757 C 186.47621,224.74594 177.18945,222.16506 166.87088,222.16492 C 152.21125,222.16506 139.57982,227.11755 128.97658,237.02243 C 118.44437,246.85777 113.17833,263.31958 113.17835,286.40789 M 250.87894,360.80002 L 310.97615,207.41207 L 333.28577,207.41207 L 397.33254,360.80002 L 373.74199,360.80002 L 355.48867,314.34416 L 290.0542,314.34416 L 272.86831,360.80002 L 250.87894,360.80002 M 296.03192,297.8126 L 349.08398,297.8126 L 332.75203,255.3327 C 327.77056,242.42843 324.07009,231.82591 321.65058,223.52511 C 319.65796,233.36049 316.84704,243.12596 313.2178,252.82157 L 296.03192,297.8126 M 407.04633,311.51915 L 426.58058,309.84509 C 427.50568,317.518 429.64056,323.8307 432.98526,328.78313 C 436.40107,333.66592 441.66713,337.64188 448.78348,340.71102 C 455.89973,343.7104 463.90557,345.21011 472.80102,345.21011 C 480.70004,345.21011 487.67403,344.05918 493.72298,341.75728 C 499.77171,339.45546 504.25501,336.31657 507.1728,332.34058 C 510.16153,328.29491 511.65595,323.90045 511.65606,319.15715 C 511.65595,314.34423 510.23268,310.15901 507.38628,306.60152 C 504.53963,302.97442 499.84291,299.94014 493.296,297.49872 C 489.09728,295.89446 479.81047,293.41819 465.43564,290.06995 C 451.06065,286.65211 440.99107,283.44346 435.2269,280.44398 C 427.75478,276.60764 422.16844,271.86439 418.46801,266.21426 C 414.83866,260.49457 413.024,254.11213 413.02403,247.06692 C 413.024,239.32442 415.26563,232.10492 419.74892,225.40846 C 424.23219,218.64251 430.77915,213.51564 439.38994,210.02781 C 448.00063,206.54029 457.57203,204.79647 468.10424,204.7963 C 479.70376,204.79647 489.91564,206.64491 498.73995,210.3417 C 507.63527,213.96902 514.46689,219.34006 519.23494,226.45478 C 524.00274,233.56975 526.56459,241.62629 526.92057,250.62436 L 507.06603,252.08918 C 505.99849,242.39356 502.36918,235.06943 496.1781,230.11681 C 490.05795,225.16446 480.98468,222.68821 468.9582,222.68805 C 456.43345,222.68821 447.289,224.9552 441.52485,229.48904 C 435.83176,233.95339 432.98523,239.35928 432.98526,245.70672 C 432.98523,251.21737 435.01337,255.75135 439.06973,259.30868 C 443.05481,262.86619 453.44461,266.52825 470.23915,270.29485 C 487.10473,273.99184 498.66868,277.2354 504.93113,280.02544 C 514.03991,284.14098 520.76482,289.37249 525.10588,295.71998 C 529.44668,301.99786 531.61718,309.25225 531.61729,317.48308 C 531.61718,325.64428 529.23319,333.35203 524.46542,340.60635 C 519.69738,347.79101 512.83015,353.40615 503.86373,357.45186 C 494.96823,361.42778 484.93423,363.41576 473.7617,363.41576 C 459.60021,363.41576 447.71601,361.39292 438.10899,357.34719 C 428.57313,353.30154 421.06544,347.23295 415.58588,339.14155 C 410.17749,330.9804 407.33095,321.77299 407.04633,311.51915 M 563.6407,360.80002 L 563.6407,207.41207 L 584.34916,207.41207 L 584.34916,360.80002 L 563.6407,360.80002 M 613.70393,311.51915 L 633.23818,309.84509 C 634.1633,317.518 636.29817,323.8307 639.64287,328.78313 C 643.05865,333.66592 648.32471,337.64188 655.44109,340.71102 C 662.55731,343.7104 670.56318,345.21011 679.45861,345.21011 C 687.35763,345.21011 694.33162,344.05918 700.38055,341.75728 C 706.42935,339.45546 710.91261,336.31657 713.83039,332.34058 C 716.81915,328.29491 718.31354,323.90045 718.31367,319.15715 C 718.31354,314.34423 716.89031,310.15901 714.04387,306.60152 C 711.19726,302.97442 706.50051,299.94014 699.95359,297.49872 C 695.75486,295.89446 686.46811,293.41819 672.09323,290.06995 C 657.71823,286.65211 647.64867,283.44346 641.88451,280.44398 C 634.41236,276.60764 628.82605,271.86439 625.12561,266.21426 C 621.49625,260.49457 619.68163,254.11213 619.68163,247.06692 C 619.68163,239.32442 621.92325,232.10492 626.40653,225.40846 C 630.88978,218.64251 637.43678,213.51564 646.04755,210.02781 C 654.65824,206.54029 664.22965,204.79647 674.76186,204.7963 C 686.36136,204.79647 696.57326,206.64491 705.39758,210.3417 C 714.29285,213.96902 721.12451,219.34006 725.89252,226.45478 C 730.66032,233.56975 733.22222,241.62629 733.57815,250.62436 L 713.72365,252.08918 C 712.65609,242.39356 709.02679,235.06943 702.83569,230.11681 C 696.71559,225.16446 687.64228,222.68821 675.61581,222.68805 C 663.09106,222.68821 653.94659,224.9552 648.18245,229.48904 C 642.48937,233.95339 639.64283,239.35928 639.64287,245.70672 C 639.64283,251.21737 641.67097,255.75135 645.72733,259.30868 C 649.7124,262.86619 660.1022,266.52825 676.89676,270.29485 C 693.76229,273.99184 705.3263,277.2354 711.58875,280.02544 C 720.69753,284.14098 727.42243,289.37249 731.76349,295.71998 C 736.10431,301.99786 738.27478,309.25225 738.27491,317.48308 C 738.27478,325.64428 735.89083,333.35203 731.12303,340.60635 C 726.35496,347.79101 719.48775,353.40615 710.52131,357.45186 C 701.62583,361.42778 691.59183,363.41576 680.41932,363.41576 C 666.2578,363.41576 654.37356,361.39292 644.7666,357.34719 C 635.23073,353.30154 627.72302,347.23295 622.24348,339.14155 C 616.83509,330.9804 613.98858,321.77299 613.70393,311.51915"
       id="text4746" />
    <path
       style="fill:url(#radialGradient3434);fill-opacity:1;stroke:#0c15b2;stroke-width:0;stroke-linecap:round;stroke-miterlimit:4;stroke-opacity:1"
       d="M 850.68903,315.8637 C 866.41894,317.03935 846.6001,334.43166 838.05083,344.03834 C 829.50157,353.64501 810.43107,354.45748 795.30883,361.69214 C 780.1866,368.92681 764.03647,392.75361 744.13755,396.75688 C 724.23864,400.76015 702.85281,402.15058 679.9735,402.06311 C 657.22615,401.97614 641.007,380.89129 621.32915,376.78496 C 601.65132,372.67865 582.13378,379.29236 567.26579,372.01816 C 552.3978,364.74395 540.36985,356.09867 532.05209,346.50804 C 523.73435,336.91744 506.75243,318.42653 519.09966,315.32595 L 684.89685,315.2298 L 850.68903,315.8637 z"
       id="path2430"
       sodipodi:nodetypes="csssssssccc" />
    <path
       style="font-size:78.40901184px;font-style:italic;font-variant:normal;font-weight:bold;font-stretch:normal;fill:#ffffff;fill-opacity:1;stroke:none;stroke-width:1px;stroke-linecap:butt;stroke-linejoin:miter;stroke-opacity:1;font-family:LMMathSymbols5;-inkscape-font-specification:LMMathSymbols5 Bold Italic"
       d="M 91.702185,285.61895 C 91.702185,260.15901 98.676145,240.24438 112.62414,225.87503 C 126.57203,211.43624 144.5763,204.21673 166.63691,204.2166 C 181.08291,204.21673 194.10575,207.59978 205.70542,214.36573 C 217.30491,221.13195 226.12912,230.58356 232.1781,242.72051 C 238.29796,254.78799 241.35798,268.49456 241.35815,283.84023 C 241.35798,299.39531 238.15564,313.31112 231.75113,325.58767 C 225.34631,337.86434 216.27303,347.17642 204.53126,353.52397 C 192.78925,359.80178 180.12219,362.94069 166.53015,362.94069 C 151.79931,362.94069 138.63418,359.453 127.03465,352.47769 C 115.43503,345.50236 106.64641,335.98099 100.66871,323.9136 C 94.691015,311.84631 91.702185,299.08143 91.702185,285.61895 M 113.0511,285.93282 C 113.05108,304.41756 118.10364,318.99602 128.20884,329.66825 C 138.3851,340.27084 151.12328,345.5721 166.42338,345.57208 C 182.00802,345.5721 194.81739,340.20107 204.85147,329.45899 C 214.95653,318.71704 220.0091,303.47591 220.00923,283.73561 C 220.0091,271.24981 217.83861,260.36827 213.49782,251.09097 C 209.22787,241.74409 202.92993,234.52461 194.60402,229.43249 C 186.34896,224.27086 177.0622,221.68998 166.74363,221.68984 C 152.084,221.68998 139.45257,226.64247 128.84933,236.54735 C 118.31712,246.3827 113.05108,262.84451 113.0511,285.93282 M 250.75169,360.32495 L 310.8489,206.93699 L 333.15853,206.93699 L 397.2053,360.32495 L 373.61475,360.32495 L 355.36143,313.86909 L 289.92695,313.86909 L 272.74106,360.32495 L 250.75169,360.32495 M 295.90467,297.33753 L 348.95674,297.33753 L 332.62479,254.85763 C 327.64332,241.95335 323.94285,231.35083 321.52334,223.05003 C 319.53072,232.88541 316.7198,242.65088 313.09056,252.3465 L 295.90467,297.33753 M 406.91909,311.04408 L 426.45334,309.37002 C 427.37844,317.04293 429.51332,323.35563 432.85802,328.30806 C 436.27383,333.19085 441.53989,337.16681 448.65624,340.23595 C 455.77249,343.23533 463.77833,344.73504 472.67378,344.73504 C 480.5728,344.73504 487.54679,343.58411 493.59574,341.28221 C 499.64447,338.98039 504.12777,335.8415 507.04556,331.86551 C 510.03429,327.81984 511.52871,323.42538 511.52882,318.68208 C 511.52871,313.86916 510.10544,309.68394 507.25904,306.12645 C 504.41239,302.49935 499.71567,299.46507 493.16876,297.02365 C 488.97004,295.41939 479.68323,292.94312 465.3084,289.59488 C 450.93341,286.17704 440.86383,282.96839 435.09966,279.96891 C 427.62754,276.13257 422.0412,271.38932 418.34077,265.73919 C 414.71142,260.0195 412.89676,253.63706 412.89679,246.59185 C 412.89676,238.84934 415.13839,231.62984 419.62168,224.93338 C 424.10495,218.16743 430.65191,213.04056 439.2627,209.55273 C 447.87339,206.06521 457.44479,204.32139 467.977,204.32122 C 479.57652,204.32139 489.7884,206.16983 498.61271,209.86662 C 507.50803,213.49394 514.33965,218.86498 519.1077,225.9797 C 523.8755,233.09467 526.43735,241.15121 526.79333,250.14929 L 506.93879,251.61411 C 505.87125,241.91848 502.24194,234.59435 496.05086,229.64173 C 489.93071,224.68938 480.85744,222.21313 468.83096,222.21297 C 456.30621,222.21313 447.16176,224.48012 441.39761,229.01396 C 435.70452,233.47831 432.85799,238.8842 432.85802,245.23164 C 432.85799,250.7423 434.88613,255.27628 438.94249,258.83361 C 442.92757,262.39112 453.31737,266.05318 470.11191,269.81978 C 486.97749,273.51677 498.54144,276.76033 504.80389,279.55037 C 513.91267,283.66591 520.63758,288.89742 524.97864,295.24491 C 529.31944,301.52279 531.48994,308.77718 531.49005,317.00801 C 531.48994,325.16921 529.10595,332.87696 524.33818,340.13128 C 519.57014,347.31594 512.70291,352.93108 503.73649,356.97679 C 494.84099,360.95271 484.80699,362.94069 473.63446,362.94069 C 459.47297,362.94069 447.58877,360.91785 437.98175,356.87212 C 428.44589,352.82647 420.9382,346.75788 415.45864,338.66648 C 410.05025,330.50533 407.20371,321.29792 406.91909,311.04408 M 563.51346,360.32495 L 563.51346,206.93699 L 584.22192,206.93699 L 584.22192,360.32495 L 563.51346,360.32495 M 613.57669,311.04408 L 633.11094,309.37002 C 634.03606,317.04293 636.17093,323.35563 639.51563,328.30806 C 642.93141,333.19085 648.19747,337.16681 655.31385,340.23595 C 662.43007,343.23533 670.43593,344.73504 679.33136,344.73504 C 687.23038,344.73504 694.20437,343.58411 700.2533,341.28221 C 706.3021,338.98039 710.78536,335.8415 713.70314,331.86551 C 716.6919,327.81984 718.18629,323.42538 718.18642,318.68208 C 718.18629,313.86916 716.76306,309.68394 713.91662,306.12645 C 711.07001,302.49935 706.37326,299.46507 699.82634,297.02365 C 695.62761,295.41939 686.34086,292.94312 671.96598,289.59488 C 657.59099,286.17704 647.52143,282.96839 641.75727,279.96891 C 634.28512,276.13257 628.69881,271.38932 624.99837,265.73919 C 621.36901,260.0195 619.55439,253.63706 619.55439,246.59185 C 619.55439,238.84934 621.79601,231.62984 626.27929,224.93338 C 630.76254,218.16743 637.30954,213.04056 645.92031,209.55273 C 654.531,206.06521 664.10241,204.32139 674.63461,204.32122 C 686.23411,204.32139 696.44601,206.16983 705.27033,209.86662 C 714.1656,213.49394 720.99726,218.86498 725.76527,225.9797 C 730.53307,233.09467 733.09497,241.15121 733.4509,250.14929 L 713.5964,251.61411 C 712.52884,241.91848 708.89954,234.59435 702.70844,229.64173 C 696.58834,224.68938 687.51503,222.21313 675.48856,222.21297 C 662.96382,222.21313 653.81935,224.48012 648.05521,229.01396 C 642.36213,233.47831 639.51559,238.8842 639.51563,245.23164 C 639.51559,250.7423 641.54373,255.27628 645.60009,258.83361 C 649.58516,262.39112 659.97496,266.05318 676.76951,269.81978 C 693.63504,273.51677 705.19905,276.76033 711.4615,279.55037 C 720.57028,283.66591 727.29518,288.89742 731.63624,295.24491 C 735.97706,301.52279 738.14753,308.77718 738.14766,317.00801 C 738.14753,325.16921 735.76358,332.87696 730.99578,340.13128 C 726.22771,347.31594 719.3605,352.93108 710.39406,356.97679 C 701.49858,360.95271 691.46458,362.94069 680.29207,362.94069 C 666.13056,362.94069 654.24632,360.91785 644.63936,356.87212 C 635.10349,352.82647 627.59578,346.75788 622.11624,338.66648 C 616.70785,330.50533 613.86134,321.29792 613.57669,311.04408"
       id="path3437"
       clip-path="url(#clipPath3453)" />
    <path
       style="fill:url(#radialGradient3430);fill-opacity:1;fill-rule:nonzero;stroke:#0c15b2;stroke-width:0;stroke-linecap:round;stroke-miterlimit:4;stroke-dasharray:none;stroke-opacity:1"
       d="M 745.55899,37.193081 C 739.60353,37.446191 730.86375,37.51186 721.24871,41.25676 C 711.63367,45.001671 695.76528,54.100691 690.72973,59.885691 C 685.79652,65.553111 686.786,63.63402 682.79632,70.38344 C 690.25523,65.62839 701.68338,57.45505 709.59246,54.35051 C 717.50154,51.245981 738.69011,49.2921 749.76692,52.602911 C 760.84374,55.91372 764.29249,60.38326 776.07855,68.579251 C 769.56047,69.009121 763.37745,68.926201 751.15419,70.423221 C 739.12575,71.89639 734.85198,72.33627 723.40496,76.66301 C 709.28668,81.999441 699.99461,85.990351 688.10664,95.411551 C 679.72585,102.05331 670.90481,114.24737 667.24977,124.2769 C 665.5872,128.83902 664.71705,129.81671 663.83669,141.92673 C 672.58012,131.453 677.08575,122.31263 684.09246,113.85051 C 689.6896,107.09075 700.39121,99.41646 708.65336,94.403281 C 720.30361,87.334311 733.05841,85.957441 746.59246,84.60051 C 736.53099,89.422611 728.28835,95.711161 721.08272,103.90507 C 715.11068,110.69621 709.00394,119.70568 706.58798,128.55833 C 703.59654,139.51969 703.22337,146.53677 706.81121,162.00676 C 710.64289,152.41893 713.46563,142.38228 718.12377,133.15499 C 722.48042,124.52492 733.45106,106.71239 739.8582,101.49227 C 746.26534,96.27216 756.86109,94.5539 762.33752,95.442061 C 755.7664,102.01295 753.17792,105.17468 751.00808,115.1236 C 749.03985,124.14813 751.22753,136.96167 753.72857,145.82778 C 754.928,150.07971 754.74241,150.20345 758.88479,155.9191 C 758.62563,143.27538 760.85063,122.34498 767.05706,111.32519 C 771.6045,103.25102 781.44048,98.04261 790.97456,98.759811 C 798.70678,99.804001 801.71244,91.78823 806.93499,88.067391 C 813.71876,83.438111 822.62284,84.91551 829.78636,87.86578 C 838.8644,86.30546 847.06724,88.956111 855.19489,93.22605 C 866.32475,99.07324 876.15107,106.89001 887.02996,113.13176 C 880.9365,93.871261 871.85226,86.582121 858.26361,77.354201 C 849.35955,71.307551 835.09472,67.6759 823.95464,71.550831 C 829.01884,67.38175 831.6043,65.919481 836.48897,64.41782 C 840.83502,63.08173 853.03863,58.99661 864.35115,60.205631 C 875.27555,61.373171 878.01255,62.233871 886.56192,66.1805 C 895.11128,70.12713 896.66051,75.284681 904.27188,83.79591 C 900.33334,70.85714 896.39375,66.38415 892.8373,62.11184 C 888.50231,56.904291 884.34249,54.740281 873.65981,52.00994 C 862.97712,49.279601 854.11668,49.295921 843.41953,51.44639 C 836.17763,52.902251 823.83444,59.45146 821.06438,60.69706 C 824.062,52.177131 827.48825,49.304901 834.5061,43.225171 C 839.45035,38.94185 840.02775,39.612661 846.80073,35.79079 C 837.26974,37.803621 821.9732,44.56083 813.94522,49.71404 C 807.87714,53.609171 809.54406,52.24102 801.88244,59.259861 C 790.25094,49.186111 780.84738,44.106941 772.04032,41.35456 C 763.23325,38.602181 751.51445,36.93996 745.55899,37.193081 z"
       id="path4756"
       sodipodi:nodetypes="czzczzcsssscsscsscszcsscscccscscssscszscscsczz" />
    <path
       sodipodi:type="arc"
       style="fill:#2b2200;fill-opacity:1;fill-rule:nonzero;stroke:none;stroke-width:3.18955803;stroke-linecap:round;stroke-miterlimit:4;stroke-dasharray:none;stroke-opacity:1"
       id="path4884"
       sodipodi:cx="-212.5"
       sodipodi:cy="-150"
       sodipodi:rx="45"
       sodipodi:ry="52.5"
       d="M -167.5,-150 A 45,52.5 0 1 1 -257.5,-150 A 45,52.5 0 1 1 -167.5,-150 z"
       transform="matrix(0.2597091,0.1166967,-0.1414991,0.3149071,817.71202,185.60328)" />
    <path
       sodipodi:type="arc"
       style="fill:#2b2200;fill-opacity:1;fill-rule:nonzero;stroke:none;stroke-width:3.18955755;stroke-linecap:round;stroke-miterlimit:4;stroke-dasharray:none;stroke-opacity:1"
       id="path4886"
       sodipodi:cx="-212.5"
       sodipodi:cy="-150"
       sodipodi:rx="45"
       sodipodi:ry="52.5"
       d="M -167.5,-150 A 45,52.5 0 1 1 -257.5,-150 A 45,52.5 0 1 1 -167.5,-150 z"
       transform="matrix(0.235853,-0.1595002,0.1934,0.2859807,880.68998,111.32256)" />
    <path
       sodipodi:type="arc"
       style="fill:#2b2200;fill-opacity:1;fill-rule:nonzero;stroke:none;stroke-width:3.18955851;stroke-linecap:round;stroke-miterlimit:4;stroke-dasharray:none;stroke-opacity:1"
       id="path4888"
       sodipodi:cx="-212.5"
       sodipodi:cy="-150"
       sodipodi:rx="45"
       sodipodi:ry="52.5"
       d="M -167.5,-150 A 45,52.5 0 1 1 -257.5,-150 A 45,52.5 0 1 1 -167.5,-150 z"
       transform="matrix(8.5364693e-2,-0.2716243,0.3293548,0.1035078,886.56022,48.55428)"
       inkscape:transform-center-x="205.6692"
       inkscape:transform-center-y="-165.94598" />
    <path
       style="fill:#447821;fill-opacity:1;fill-rule:nonzero;stroke:#447821;stroke-width:2;stroke-linecap:round;stroke-miterlimit:4;stroke-opacity:1"
       d="M 63.619306,13.867914 L 552.02554,14.81131 L 551.52302,117.91362 C 551.52302,145.33522 529.44714,167.4111 502.02554,167.4111 C 433.03169,167.86222 76.144501,167.37767 13.178435,166.97022 L 14.121831,63.365389 C 14.121831,35.943788 36.197705,13.867914 63.619306,13.867914 z"
       id="rect3422"
       sodipodi:nodetypes="ccccccc" />
    <text
       xml:space="preserve"
       style="font-size:72px;font-style:normal;font-variant:normal;font-weight:bold;font-stretch:normal;fill:#ffffff;fill-opacity:1;stroke:none;stroke-width:1px;stroke-linecap:butt;stroke-linejoin:miter;stroke-opacity:1;font-family:Arial Black;-inkscape-font-specification:Arial Black Bold"
       x="39.39595"
       y="117.91362"
       id="text3418"><tspan
         sodipodi:role="line"
         id="tspan3420"
         x="39.39595"
         y="117.91362"
         style="font-size:72px;font-style:normal;font-variant:normal;font-weight:bold;font-stretch:normal;font-family:Arial Black;-inkscape-font-specification:Arial Black Bold;fill:#ffffff;fill-opacity:1">Powered by</tspan></text>
  </g>
</svg>
